<svg id="Ebene_1" data-name="Ebene 1" xmlns="http://www.w3.org/2000/svg" viewBox="0 0 235.16 85.07"><defs><style>.cls-1{fill:#e8190c;}.cls-2{fill:#131106;}.cls-3{fill:#060300;}.cls-4{fill:#fff;}</style></defs><title>logo-black</title><path class="cls-1" d="M100,56.73a15.15,15.15,0,0,1-.62,5.48,21.62,21.62,0,0,1-1.51,3.62C96.2,68.9,94.53,72,92.61,75a11.21,11.21,0,0,1-1.21,1.66A17.62,17.62,0,0,0,89,80.11,30.82,30.82,0,0,1,83.13,87c-1,.91-1.9,1.9-2.81,2.88-2.5,2.69-5.24,5.14-7.74,7.82a59.16,59.16,0,0,0-4.12,4.82c-1.55,2-3.25,4-4.88,5.94a5.34,5.34,0,0,0-1,1.77,1.7,1.7,0,0,1-1.2,1.22c-1,.28-1.88.87-2.87,1.19a1.89,1.89,0,0,1-2.57-1.44,3,3,0,0,0-.6-1.37A6.54,6.54,0,0,1,54.5,108a19.46,19.46,0,0,0-3.07-6.1A38.62,38.62,0,0,0,47,97.37C45.7,96.17,44.31,95,43,93.88a3,3,0,0,0-.82-.53,2,2,0,0,1-.77-.6c-1.59-1.81-3.18-3.62-4.79-5.43-1-1.09-2.09-2-3-3.14a38.84,38.84,0,0,1-4-5.5c-.62-1.06-1.28-2.08-1.88-3.15a32.51,32.51,0,0,1-3.53-8.84,29.41,29.41,0,0,1-.87-6.19,38.73,38.73,0,0,1,.67-7.82A13.8,13.8,0,0,1,25.55,49a21.85,21.85,0,0,1,6.3-7.56A19,19,0,0,1,39.14,38a14.42,14.42,0,0,1,6,0c1.72.36,3.44.69,5.13,1.19A15.8,15.8,0,0,1,57,43a16.55,16.55,0,0,1,2.45,2.83c.46.7.58.69,1.11.09s1.07-1.2,1.6-1.81A32.51,32.51,0,0,1,69.77,38a12.65,12.65,0,0,1,4.11-1.43A22.68,22.68,0,0,1,78.31,36a20.59,20.59,0,0,1,7.27,1.2,28.66,28.66,0,0,1,7.76,4.13A14.5,14.5,0,0,1,96.8,45a24,24,0,0,1,3.2,8.76A17.08,17.08,0,0,1,100,56.73Z" transform="translate(-23.27 -27.65)"/><path class="cls-2" d="M120.22,56.72v4.83c0,.58,0,1.15-.75,1.28-.16,0-.27.23-.42.33a1.49,1.49,0,0,1-.48.22,3.17,3.17,0,0,1-2.24-1.06,7.92,7.92,0,0,1-.82-2.89c-.49-2.64-.61-5.33-.89-8-.24-2.22-.12-4.47-.16-6.7s.36-4.69.53-7a8.14,8.14,0,0,0-.58-4.1,4.55,4.55,0,0,1,.42-4.67,2.66,2.66,0,0,1,4.47-.13,5.42,5.42,0,0,1,1.2,3.83,4.41,4.41,0,0,0,.18,1.77,4.13,4.13,0,0,1,.18,1.05,24.87,24.87,0,0,1-.33,6.94,7.18,7.18,0,0,0-.12.79c-.08.71.06.88.77.77,1.36-.2,2.73-.21,4.08-.49a9,9,0,0,1,1.15-.12c.79-.06,1-.27.93-1.07a21.3,21.3,0,0,1,0-3.66,16.91,16.91,0,0,1,.66-4,4.37,4.37,0,0,0,.09-1.87,2.59,2.59,0,0,1,.56-2.17,2.7,2.7,0,0,1,4.79,1.72,34.17,34.17,0,0,1-.19,5.44,49.92,49.92,0,0,0-.42,6.24c0,1.43,0,2.86,0,4.29a39.6,39.6,0,0,1-.33,4.36,56.23,56.23,0,0,0-.37,8.21,2.07,2.07,0,0,1-.72,1.83,2.43,2.43,0,0,1-3.26-.45,3.34,3.34,0,0,1-.53-1.59c-.18-2.14-.42-4.27-.7-6.4a21.3,21.3,0,0,1,0-3.66,4.9,4.9,0,0,0,0-.54c0-.49-.19-.62-.69-.53-1.55.28-3.08.64-4.61,1l-.87.21c-.69.12-.73.13-.73.85,0,1.7,0,3.39,0,5.09Z" transform="translate(-23.27 -27.65)"/><path class="cls-2" d="M154.43,49.05c-.06-.92-.17-2.41-.27-3.9a6.22,6.22,0,0,0-.5-1.89,3.11,3.11,0,0,1,1.18-4c.39-.28.76-.58,1.14-.86a1.9,1.9,0,0,1,2.54.08c.58.51,1.09,1.1,1.63,1.65A48.07,48.07,0,0,1,165.81,47a12.07,12.07,0,0,1,1,1.77,1.48,1.48,0,0,0,.28.45c.16.16.37.13.38-.11.05-2.49.75-5,.08-7.47a4.31,4.31,0,0,1-.12-.79,3.38,3.38,0,0,1,2.1-3.77c.86-.41,1.33-.21,1.73.37a1.37,1.37,0,0,0,.29.34,2.91,2.91,0,0,1,1.09,2.61c0,2.23.19,4.46,0,6.7-.32,3.41-.62,6.83-1,10.23a4.88,4.88,0,0,0,.37,2.61,2.74,2.74,0,0,1-1.23,3.6,1.21,1.21,0,0,1-.59.19,3.57,3.57,0,0,1-3.39-2.91,8.36,8.36,0,0,1-.11-1.87,5.43,5.43,0,0,0-.44-2.17,26.13,26.13,0,0,0-3.06-5.43c-1-1.47-2-2.86-3.13-4.24a1.35,1.35,0,0,0-.31-.32c-.23-.12-.42-.07-.43.22s0,.6,0,.89c0,2.72.1,5.43.37,8.13.14,1.42.09,2.86.1,4.29a2.62,2.62,0,0,1-1.07,2.07,1.08,1.08,0,0,1-.92.24,2.84,2.84,0,0,1-2.5-2.44,3.27,3.27,0,0,1-.07-.62,25.74,25.74,0,0,0-.59-5.4A50.65,50.65,0,0,1,154.43,49.05Z" transform="translate(-23.27 -27.65)"/><path class="cls-3" d="M191.8,89.89c.26,3,.32,5.9.31,8.85,0,.36,0,.71,0,1.07a2.16,2.16,0,0,1-2.38,2.15c-1.4-.17-1.93-.82-1.79-2.23a9.74,9.74,0,0,0,0-1.79c-.19-2.22-.18-4.46-.5-6.68-.12-.86-.25-1-1.07-.83-1.71.43-3.46.59-5.17,1-.67.17-.7.2-.73.9-.1,2.41,0,4.83,0,7.24,0,.24,0,.48,0,.72.11,1.07-.5,1.55-1.57,1.79a3.41,3.41,0,0,1-.71.06,1.84,1.84,0,0,1-2-2c0-1.58-.15-3.15-.14-4.73,0-2.81-.45-5.58-.59-8.38a61.14,61.14,0,0,1,0-6.35,5.8,5.8,0,0,0-.38-2.89,3,3,0,0,1,.87-3.08,2.86,2.86,0,0,1,3.42-.15,2.77,2.77,0,0,1,1.13,2.32,54.32,54.32,0,0,1-.1,6.25c-.07,1-.12,2-.16,3,0,.72.08.87.8.8a39.29,39.29,0,0,0,4.95-.69c.32-.08.64-.14,1-.21.6-.13.78-.32.75-.9-.1-1.82-.21-3.63-.32-5.45a4.62,4.62,0,0,0-.74-2.35,2.39,2.39,0,0,1,.51-3,2.16,2.16,0,0,1,3.37.82,14.51,14.51,0,0,1,1.14,5.56c0,2.51.06,5,.09,7.51C191.81,88.82,191.8,89.36,191.8,89.89Z" transform="translate(-23.27 -27.65)"/><path class="cls-2" d="M243.43,85.31c-1.31-.14-2.68.11-4.05,0a3.18,3.18,0,0,1-1.88-.72,2.51,2.51,0,0,1,.56-4.06,3.83,3.83,0,0,1,2.36-.24,24.89,24.89,0,0,0,3.12.18,42.22,42.22,0,0,0,5.27-.21c.71-.08,1.43-.09,2.14-.12a11.2,11.2,0,0,0,2.3-.27,1.86,1.86,0,0,1,2.31,1.82,5.41,5.41,0,0,1-1.11,3.41c-1.5,2.05-3.22,3.91-4.89,5.82a33.5,33.5,0,0,0-4.16,5.46,8.41,8.41,0,0,0-.52,1c-.2.53,0,.79.53.86a5.37,5.37,0,0,0,1,0c3.15-.19,6.31-.35,9.47-.41a2.82,2.82,0,0,1,1.84.57,1.56,1.56,0,0,1,.57,2,3,3,0,0,1-.16.42,2.17,2.17,0,0,1-2.23,1.31,21.58,21.58,0,0,0-4.82,0,57.92,57.92,0,0,1-8.93.21,5.23,5.23,0,0,1-1.75-.34c-1.59-.66-2-1.83-1.41-3.51a13.43,13.43,0,0,1,2.42-3.95,10.78,10.78,0,0,0,1.31-1.91A28.44,28.44,0,0,1,246,88.16a13.12,13.12,0,0,0,1.6-2.25c.11-.21.33-.41.2-.65s-.43-.14-.65-.13Z" transform="translate(-23.27 -27.65)"/><path class="cls-2" d="M161.75,91.79a8.1,8.1,0,0,1-5.35-1.68,3.24,3.24,0,0,1-1.19-1.73c-.09-.34-.25-.67-.34-1a1.26,1.26,0,0,1,.87-1.62,2.24,2.24,0,0,1,1.74.14,1.1,1.1,0,0,1,.69,1.23,1.45,1.45,0,0,0,1,1.62,5.86,5.86,0,0,0,2.85.63,2.12,2.12,0,0,0,1.56-.75,1.74,1.74,0,0,0-.5-2.9c-.5-.25-1-.43-1.53-.73a3.79,3.79,0,0,1-1.11-.89,2.36,2.36,0,0,0-.77-.59,13.73,13.73,0,0,1-1.23-.73,3.35,3.35,0,0,1-1.69-3.13,6.61,6.61,0,0,1,.74-3.44,4.51,4.51,0,0,1,4.4-2.34A6.29,6.29,0,0,1,166,75.56a4.62,4.62,0,0,1,1.17,3.8c0,.43-.39.65-.71.86a1.64,1.64,0,0,1-1.86,0,1.38,1.38,0,0,1-.68-1.51,1.72,1.72,0,0,0-1.52-2.2,2.8,2.8,0,0,0-3.52,2.85,1.89,1.89,0,0,0,.81,1.52,10,10,0,0,0,1.9,1.17,17.84,17.84,0,0,1,4.08,2.86,3.66,3.66,0,0,1,.07,5.39A5.42,5.42,0,0,1,161.75,91.79Z" transform="translate(-23.27 -27.65)"/><path class="cls-2" d="M127.53,79.69a27.72,27.72,0,0,1-.32,4.46,12.43,12.43,0,0,1-1.28,3.78,3.72,3.72,0,0,1-5.54,1.15,9.07,9.07,0,0,1-3.24-4.9,17.14,17.14,0,0,1-.63-6.72c0-.44,0-.89,0-1.33A1.59,1.59,0,0,1,119,74.58a1.61,1.61,0,0,1,.89,1.44,4.06,4.06,0,0,1-.12,1.15,13.69,13.69,0,0,0,.08,5.94A8.28,8.28,0,0,0,121,85.8a3.68,3.68,0,0,0,.56.69,1.37,1.37,0,0,0,2.36-.55,9.06,9.06,0,0,0,.78-3.83c0-1.81-.07-3.63-.24-5.44a3.31,3.31,0,0,1,0-.63,1.53,1.53,0,0,1,1.67-1.36,1.56,1.56,0,0,1,1.44,1.53c0,.15,0,.3,0,.45C127.53,77.67,127.53,78.68,127.53,79.69Z" transform="translate(-23.27 -27.65)"/><path class="cls-2" d="M135.92,82.65c.51,0,1,0,1.52,0,1,0,1.24.5.85,1.39a1.49,1.49,0,0,1-1.53,1c-.9,0-1.79,0-2.68.08s-.77,0-.83.75a35.91,35.91,0,0,0-.28,4.28c0,.15,0,.3,0,.45,0,.92-.33,1.23-1.15,1.22s-1.21-.39-1.23-1.27c0-2.24,0-4.47.18-6.7.1-1.7.05-3.4.1-5.1a3.13,3.13,0,0,0-.43-1.61,1.43,1.43,0,0,1,.43-1.9,1.83,1.83,0,0,1,1.39-.15,21.83,21.83,0,0,0,4.27.32,36.15,36.15,0,0,0,4.29-.22,4.21,4.21,0,0,1,.62,0,1.36,1.36,0,0,1,1.41,1,1.5,1.5,0,0,1-.8,1.63,3.66,3.66,0,0,1-1.22.27,53.73,53.73,0,0,1-5.52.41c-1.51,0-1.51,0-1.57,1.58,0,.68,0,1.37-.09,2,0,.41.16.61.58.61h1.7Z" transform="translate(-23.27 -27.65)"/><path class="cls-2" d="M143.87,84V78.81a14.77,14.77,0,0,0-.11-1.87,1.59,1.59,0,0,1,1.67-1.84,35.17,35.17,0,0,0,6.32-.28,5.41,5.41,0,0,1,1,0,1.28,1.28,0,0,1,1.43,1.17,1.52,1.52,0,0,1-1.24,1.52c-.29.05-.59.07-.89.11-1.51.16-3,.34-4.53.48a.7.7,0,0,0-.75.68,25,25,0,0,0-.31,3.56c0,.63.09.73.71.74a25.58,25.58,0,0,0,3-.23,1,1,0,0,1,1,.41,1.23,1.23,0,0,1-.82,2c-1.14.23-2.29.38-3.44.52-.8.1-.81.1-.92.9a21.31,21.31,0,0,0-.13,3.83,1,1,0,1,1-2.08.16A37.42,37.42,0,0,1,143.87,84Z" transform="translate(-23.27 -27.65)"/><path class="cls-2" d="M209,77.71c-1.65.19-2.37-.85-2.76-2.32a2.52,2.52,0,0,1,1-3c.48-.32.75-.91,1.33-1.16a2,2,0,0,1,1.81,0c1.85,1.05,2.78,3.53,1,5.32-.19.19-.41.35-.6.54A2,2,0,0,1,209,77.71Z" transform="translate(-23.27 -27.65)"/><path class="cls-2" d="M197.74,71.08a2.27,2.27,0,0,1,2.68,1.64,3,3,0,0,1-.62,2.93c-.42.46-.82.94-1.23,1.41a2,2,0,0,1-2.77.15,3.1,3.1,0,0,1-1-2.12,9.79,9.79,0,0,0-.15-1.41,2.14,2.14,0,0,1,1.25-2.24A4,4,0,0,1,197.74,71.08Z" transform="translate(-23.27 -27.65)"/><path class="cls-4" d="M72.82,79.7a1.19,1.19,0,0,0,.21,1c.3.33.19.65-.1.94-.1.11-.2.23-.31.33a.79.79,0,0,0-.15,1c.47.94.47,1-.33,1.59-.39.29-.31.46,0,.77.55.64.32,1.29-.53,1.35a2.14,2.14,0,0,0-1.55.93,1,1,0,0,0,.19,1.5c.19.15.4.26.59.4a.73.73,0,0,1,.33.93.83.83,0,0,1-.91.57,2.26,2.26,0,0,1-.43-.11,1,1,0,0,0-1.14.28,1.59,1.59,0,0,1-.64.46,3.93,3.93,0,0,0-1.63,1A2.15,2.15,0,0,1,64,92.8a13.7,13.7,0,0,0-2-1.31,8.77,8.77,0,0,0-5-.64,6.9,6.9,0,0,1-6-1.69,11.29,11.29,0,0,1-2.14-2.49,1.53,1.53,0,0,1-.2-.59c-.18-1,1.12-2.88,2.15-3a3,3,0,0,0,2.22-1.33c.72-.94,1.41-1.92,2.22-2.79a5.14,5.14,0,0,0,.78-1.79c.11-.26,0-.51-.23-.73a3.8,3.8,0,0,1-.8-2.85c0-.59.05-1.19.06-1.79s-.14-.84-.75-1a5.87,5.87,0,0,1-.6-.16c-.28-.12-.55-.27-.5-.65,0-.09,0-.23,0-.26-.6-.38-.52-1-.6-1.58a8.83,8.83,0,0,0-.63-1.66,32.91,32.91,0,0,1-1.48-5.24,6.93,6.93,0,0,0-.65-1.94,7.72,7.72,0,0,1-.46-4.81,1.47,1.47,0,0,1,1.12-1.36,2,2,0,0,1,1.69,1,5,5,0,0,1,.53,1.61c.14.91.32,1.81.48,2.72a52.33,52.33,0,0,0,1.2,5.13,55.84,55.84,0,0,1,1.22,6.13,2.75,2.75,0,0,0,1.08,1.88c.86.64,1.72,1.29,2.6,1.9a1.19,1.19,0,0,0,1.71-.06c1.25-1.12,1.76-1,3.06.16a10.91,10.91,0,0,0,4.69,2.67c.51.13,1.06.16,1.58.26A3.14,3.14,0,0,1,72.82,79.7Z" transform="translate(-23.27 -27.65)"/><path class="cls-4" d="M62.08,55.68c0,1.29,0,2.4-.1,3.5a10.91,10.91,0,0,0,.28,3.46,4.68,4.68,0,0,1-.14,3,2.1,2.1,0,0,1-.28.56c-.49.59-.9.58-1.33-.05a5.62,5.62,0,0,1-1-2.84c-.11-1.7-.21-3.39-.39-5.08A5.3,5.3,0,0,1,59,56c0-.16-.1-.39-.19-.58a7,7,0,0,1-.41-4.37,1.52,1.52,0,0,1,2.17-1,2.47,2.47,0,0,1,1.27,1.64A16.75,16.75,0,0,1,62.08,55.68Z" transform="translate(-23.27 -27.65)"/><path class="cls-4" d="M66.3,63.26A46.25,46.25,0,0,0,66,57.33a5.18,5.18,0,0,1,.61-2.92,2.55,2.55,0,0,1,.33-.52,1.4,1.4,0,0,1,2.47.37,4.61,4.61,0,0,1,.25,2.88c-.18,1.09-.42,2.16-.64,3.24-.37,1.89-.75,3.79-1.13,5.68a2.73,2.73,0,0,1-.45,1.24c-.29.35-.55.34-.76-.06a3.35,3.35,0,0,1-.43-1.71C66.31,64.67,66.3,63.81,66.3,63.26Z" transform="translate(-23.27 -27.65)"/><path class="cls-4" d="M74.68,73.44c-.57,0-.71-.14-.69-.64a2.32,2.32,0,0,1,.23-1A20.24,20.24,0,0,1,75.79,69a1.86,1.86,0,0,0,.4-1.58,1.61,1.61,0,0,1,.73-1.69c.28-.18.48-.45.74-.65a.7.7,0,0,1,1.1.07A8.26,8.26,0,0,0,80,66.4c.17.12.13.31,0,.49-1,1.77-1.93,3.55-3,5.26A2.91,2.91,0,0,1,74.68,73.44Z" transform="translate(-23.27 -27.65)"/><path class="cls-4" d="M46,76.87c-.18.5-.37,1.19-.67,1.83-.22.44-.59.48-1.08.25a3.59,3.59,0,0,1-1.57-1.54c-.59-1.07-1.16-2.15-1.72-3.23a1.71,1.71,0,0,1-.26-1c.06-.45.35-.68.75-.49a26.19,26.19,0,0,1,3.81,1.93.68.68,0,0,1,.38.73C45.5,75.83,46,76.2,46,76.87Z" transform="translate(-23.27 -27.65)"/><path class="cls-2" d="M193.6,45.62a6.38,6.38,0,0,0-.86-2.42c-.21-.35-.44-.7-.64-1.07-1.67-3.12-4.56-4.5-7.78-5.33a10.27,10.27,0,0,0-5-.07,3.57,3.57,0,0,0-2.28,1.11,7.76,7.76,0,0,0-1,1.78,2.4,2.4,0,0,0,0,2.31,1.18,1.18,0,0,1,.08.43,32.64,32.64,0,0,1,.41,4.63,97.75,97.75,0,0,1,.22,12.5,26.36,26.36,0,0,0,.13,3.11c0,.31.22.47.41.66a3.31,3.31,0,0,0,3.08.75,34.71,34.71,0,0,0,3.9-1,11.09,11.09,0,0,0,4.28-2.5,26.8,26.8,0,0,0,3.5-4.38,11.68,11.68,0,0,0,2-6.21A19.67,19.67,0,0,0,193.6,45.62Zm-4.77,6.71a16.81,16.81,0,0,1-3.46,4.74,9.34,9.34,0,0,1-3.75,1.81c-.35.11-.5-.09-.49-.42a1.23,1.23,0,0,1,0-.27,28.15,28.15,0,0,0,.28-5.35c0-3.43,0-6.86-.23-10.28-.07-.91.44-1.18,1.17-1.12a6.55,6.55,0,0,1,4.77,2.5,10.32,10.32,0,0,1,2.3,6.27A4.91,4.91,0,0,1,188.83,52.33Z" transform="translate(-23.27 -27.65)"/><path class="cls-2" d="M235.43,100.24a38.63,38.63,0,0,1-1.07-3.78,6.08,6.08,0,0,0-1.93-2.84,9.26,9.26,0,0,0-1.08-.78c-.68-.45-.68-.44-.2-1a7,7,0,0,0,1.36-2.69,6,6,0,0,0-1.61-5.51,11.43,11.43,0,0,0-4.27-2.87,8.55,8.55,0,0,0-3.17-.9,12.12,12.12,0,0,1-2.47-.26,2.5,2.5,0,0,0-2.73,1.24,3.07,3.07,0,0,0-.36,2.25c.33,1.78.49,3.59.7,5.4.49,4.17,1.07,8.33,1.21,12.53a2.19,2.19,0,0,0,2.06,2.27,2.09,2.09,0,0,0,2.39-2.12c0-.72-.08-1.43-.12-2.15h-.08V96.57c0-.69.08-.77.74-.8a9.92,9.92,0,0,1,3.42.54,3.33,3.33,0,0,1,2.46,2.36,13,13,0,0,1,.71,2.67,1.39,1.39,0,0,0,.39.88,1.07,1.07,0,0,0,.92.47,4.48,4.48,0,0,0,2.28-.92A1.3,1.3,0,0,0,235.43,100.24ZM227.8,89.33a12,12,0,0,1-3.58,2.14c-.29.14-.44,0-.47-.33-.05-.56-.09-1.13-.13-1.69h0c-.08-1-.16-2-.23-2.93,0-.24-.05-.47-.05-.71,0-.51.25-.75.73-.63a7.38,7.38,0,0,1,3.76,2.09A1.37,1.37,0,0,1,227.8,89.33Z" transform="translate(-23.27 -27.65)"/><path class="cls-2" d="M151.56,58.56a8.56,8.56,0,0,1-.79-3.82,3.19,3.19,0,0,0-.08-1.41A37.92,37.92,0,0,1,149.25,48c-.48-1.69-.76-3.43-1.34-5.1a6.55,6.55,0,0,1-.49-2,2.68,2.68,0,0,0-1.69-2.42,3.69,3.69,0,0,0-3.31.82,4.14,4.14,0,0,0-1,2.27,3.14,3.14,0,0,1-.27,1c-.82,2-1.6,4-2.46,6-1.58,3.67-2.52,7.57-3.85,11.33a2,2,0,0,0,.25,1.8c.52.84,1.42,1,2.21,1.42a.76.76,0,0,0,.82-.22,2.92,2.92,0,0,0,1.09-1.79,19.94,19.94,0,0,1,1.32-3.88.63.63,0,0,1,.66-.49,28.86,28.86,0,0,0,4.55-.34c.68-.11.81,0,1,.68.08.22.15.45.22.68a23.21,23.21,0,0,0,1.18,3A2.76,2.76,0,0,0,150.33,62a.66.66,0,0,0,.31-.16A2.71,2.71,0,0,0,151.56,58.56ZM145,52.28c-.62,0-1.24,0-1.87,0-.29,0-.59-.16-.45-.49a21.18,21.18,0,0,1,1.38-3,4,4,0,0,1,.93,1.7,9,9,0,0,1,.41,1.17C145.57,52.13,145.5,52.27,145,52.28Z" transform="translate(-23.27 -27.65)"/><path class="cls-2" d="M215.48,99.75a13.15,13.15,0,0,1-1.2-2.68,16.35,16.35,0,0,0-1.92-4.21,4.36,4.36,0,0,1-.46-1.06c-.28-.91-.6-1.8-1-2.69A52.9,52.9,0,0,0,207.33,82a2.48,2.48,0,0,0-1.55-1.27,6.11,6.11,0,0,0-1.88-.22,1.79,1.79,0,0,0-1.17.24,3.55,3.55,0,0,0-1.2,1.64c-.56,2-1.09,4-1.65,5.94-.84,3-1.6,6-2.7,9a10.36,10.36,0,0,0-.62,2.51,2.51,2.51,0,0,0,.54,1.92,2.3,2.3,0,0,0,2.24.84,1.76,1.76,0,0,0,1.34-1.52,40.82,40.82,0,0,1,1.67-4.61,1.16,1.16,0,0,1,1.19-.87,29.64,29.64,0,0,0,4.1-.29c.93-.17,1-.12,1.49.69a16.73,16.73,0,0,1,1.32,3.6,7.79,7.79,0,0,0,1.42,2.76,2.06,2.06,0,0,0,2.27.84A2.21,2.21,0,0,0,215.48,99.75Zm-8.72-8.29c-.53.06-1.06.09-1.6.13v0c-.14,0-.29,0-.44,0-.65,0-.74-.22-.51-.85s.49-1.45.74-2.18c.07-.19.11-.43.35-.47s.32.22.42.39c.47.79.94,1.58,1.39,2.38C207.34,91.25,207.24,91.41,206.76,91.46Z" transform="translate(-23.27 -27.65)"/><path class="cls-1" d="M59.75,78.27a2.27,2.27,0,0,1,1.63.61.59.59,0,0,0,1,0,3.43,3.43,0,0,1,.53-.48A2.33,2.33,0,0,1,66,78.31a2.41,2.41,0,0,1,.82,3.09,14.17,14.17,0,0,1-1.67,2.73c-.81,1-1.57,1.94-2.34,2.92a4.78,4.78,0,0,1-.34.42c-.31.3-.54.29-.68-.09a4.18,4.18,0,0,0-1.22-1.51,21.72,21.72,0,0,1-2.12-2.17,3.85,3.85,0,0,1-1-3.62A2.45,2.45,0,0,1,59.75,78.27Z" transform="translate(-23.27 -27.65)"/></svg>